<mxfile host="Electron" modified="2024-12-17T19:26:21.587Z" agent="Mozilla/5.0 (Windows NT 10.0; Win64; x64) AppleWebKit/537.36 (KHTML, like Gecko) draw.io/24.1.0 Chrome/120.0.6099.109 Electron/28.1.0 Safari/537.36" etag="aJ-kV8kQNZ3m2_2AbjjW" version="24.1.0" type="device">
  <diagram name="Страница — 1" id="gEmL8MGBM9VjumLxJKDo">
    <mxGraphModel dx="1449" dy="1388" grid="1" gridSize="10" guides="1" tooltips="1" connect="1" arrows="1" fold="1" page="1" pageScale="1" pageWidth="827" pageHeight="1169" math="0" shadow="0">
      <root>
        <mxCell id="0" />
        <mxCell id="1" parent="0" />
        <mxCell id="Yu23dujm9KJZ6Qv4jJrQ-13" value="" style="rounded=0;whiteSpace=wrap;html=1;fillColor=#f5f5f5;strokeColor=#666666;fontColor=#333333;" parent="1" vertex="1">
          <mxGeometry x="74" y="480" width="680" height="370" as="geometry" />
        </mxCell>
        <mxCell id="Yu23dujm9KJZ6Qv4jJrQ-1" value="OrderService" style="rounded=0;whiteSpace=wrap;html=1;fillColor=#d5e8d4;strokeColor=#82b366;" parent="1" vertex="1">
          <mxGeometry x="405" y="530" width="160" height="50" as="geometry" />
        </mxCell>
        <mxCell id="Yu23dujm9KJZ6Qv4jJrQ-2" value="" style="shape=actor;whiteSpace=wrap;html=1;" parent="1" vertex="1">
          <mxGeometry x="365" y="370" width="40" height="60" as="geometry" />
        </mxCell>
        <mxCell id="Yu23dujm9KJZ6Qv4jJrQ-5" value="ClientService" style="rounded=0;whiteSpace=wrap;html=1;fillColor=#d5e8d4;strokeColor=#82b366;" parent="1" vertex="1">
          <mxGeometry x="94" y="530" width="160" height="50" as="geometry" />
        </mxCell>
        <mxCell id="Yu23dujm9KJZ6Qv4jJrQ-6" value="StoreService" style="rounded=0;whiteSpace=wrap;html=1;fillColor=#d5e8d4;strokeColor=#82b366;" parent="1" vertex="1">
          <mxGeometry x="565" y="640" width="160" height="70" as="geometry" />
        </mxCell>
        <mxCell id="Yu23dujm9KJZ6Qv4jJrQ-7" value="Delivery&lt;span style=&quot;background-color: initial;&quot;&gt;Service&lt;/span&gt;" style="rounded=0;whiteSpace=wrap;html=1;fillColor=#d5e8d4;strokeColor=#82b366;" parent="1" vertex="1">
          <mxGeometry x="94" y="760" width="200" height="50" as="geometry" />
        </mxCell>
        <mxCell id="Yu23dujm9KJZ6Qv4jJrQ-8" value="&lt;span style=&quot;background-color: initial;&quot;&gt;NotifyService&lt;/span&gt;" style="rounded=0;whiteSpace=wrap;html=1;fillColor=#d5e8d4;strokeColor=#82b366;" parent="1" vertex="1">
          <mxGeometry x="405" y="761" width="160" height="50" as="geometry" />
        </mxCell>
        <mxCell id="Yu23dujm9KJZ6Qv4jJrQ-12" value="RabbitMQ" style="rounded=0;whiteSpace=wrap;html=1;fillColor=#f8cecc;strokeColor=#b85450;" parent="1" vertex="1">
          <mxGeometry x="94" y="640" width="400" height="70" as="geometry" />
        </mxCell>
        <mxCell id="Yu23dujm9KJZ6Qv4jJrQ-14" value="" style="endArrow=classic;html=1;rounded=0;exitX=-0.043;exitY=0.861;exitDx=0;exitDy=0;exitPerimeter=0;startArrow=classic;startFill=1;endFill=1;" parent="1" source="Yu23dujm9KJZ6Qv4jJrQ-2" target="Yu23dujm9KJZ6Qv4jJrQ-5" edge="1">
          <mxGeometry width="50" height="50" relative="1" as="geometry">
            <mxPoint x="304" y="840" as="sourcePoint" />
            <mxPoint x="354" y="790" as="targetPoint" />
          </mxGeometry>
        </mxCell>
        <mxCell id="Yu23dujm9KJZ6Qv4jJrQ-16" value="" style="endArrow=classic;html=1;rounded=0;exitX=0.25;exitY=1;exitDx=0;exitDy=0;entryX=0.1;entryY=0.024;entryDx=0;entryDy=0;entryPerimeter=0;startArrow=classic;startFill=1;endFill=1;" parent="1" edge="1">
          <mxGeometry width="50" height="50" relative="1" as="geometry">
            <mxPoint x="193.71" y="578.32" as="sourcePoint" />
            <mxPoint x="193.71" y="640.0000000000001" as="targetPoint" />
          </mxGeometry>
        </mxCell>
        <mxCell id="Yu23dujm9KJZ6Qv4jJrQ-20" value="" style="endArrow=classic;html=1;rounded=0;entryX=0.074;entryY=0.037;entryDx=0;entryDy=0;entryPerimeter=0;exitX=0.807;exitY=0.994;exitDx=0;exitDy=0;exitPerimeter=0;startArrow=classic;startFill=1;endFill=1;" parent="1" edge="1">
          <mxGeometry width="50" height="50" relative="1" as="geometry">
            <mxPoint x="459.99999999999994" y="709.9999999999999" as="sourcePoint" />
            <mxPoint x="460.0399999999999" y="763.2700000000001" as="targetPoint" />
          </mxGeometry>
        </mxCell>
        <mxCell id="Yu23dujm9KJZ6Qv4jJrQ-26" value="" style="endArrow=classic;html=1;rounded=0;exitX=0.75;exitY=1;exitDx=0;exitDy=0;startArrow=classic;startFill=1;endFill=1;" parent="1" source="Yu23dujm9KJZ6Qv4jJrQ-2" target="Yu23dujm9KJZ6Qv4jJrQ-1" edge="1">
          <mxGeometry width="50" height="50" relative="1" as="geometry">
            <mxPoint x="402" y="402" as="sourcePoint" />
            <mxPoint x="294" y="540" as="targetPoint" />
          </mxGeometry>
        </mxCell>
        <mxCell id="Yu23dujm9KJZ6Qv4jJrQ-32" value="" style="endArrow=classic;html=1;rounded=0;exitX=0;exitY=0.75;exitDx=0;exitDy=0;entryX=1;entryY=0.75;entryDx=0;entryDy=0;startArrow=classic;startFill=1;endFill=1;" parent="1" edge="1">
          <mxGeometry width="50" height="50" relative="1" as="geometry">
            <mxPoint x="565" y="674.71" as="sourcePoint" />
            <mxPoint x="494" y="674.71" as="targetPoint" />
          </mxGeometry>
        </mxCell>
        <mxCell id="Yu23dujm9KJZ6Qv4jJrQ-48" value="" style="endArrow=classic;html=1;rounded=0;exitX=0.901;exitY=0.01;exitDx=0;exitDy=0;exitPerimeter=0;entryX=0.45;entryY=1.013;entryDx=0;entryDy=0;entryPerimeter=0;startArrow=classic;startFill=1;endFill=1;" parent="1" edge="1">
          <mxGeometry width="50" height="50" relative="1" as="geometry">
            <mxPoint x="193.82000000000005" y="760" as="sourcePoint" />
            <mxPoint x="193.62" y="710.4100000000001" as="targetPoint" />
          </mxGeometry>
        </mxCell>
        <mxCell id="Yu23dujm9KJZ6Qv4jJrQ-65" value="" style="endArrow=classic;html=1;rounded=0;exitX=0.826;exitY=0.009;exitDx=0;exitDy=0;exitPerimeter=0;entryX=0.218;entryY=0.985;entryDx=0;entryDy=0;entryPerimeter=0;startArrow=classic;startFill=1;endFill=1;" parent="1" edge="1">
          <mxGeometry width="50" height="50" relative="1" as="geometry">
            <mxPoint x="460.12" y="640.75" as="sourcePoint" />
            <mxPoint x="459.9999999999999" y="580" as="targetPoint" />
          </mxGeometry>
        </mxCell>
        <mxCell id="ja13YHAvxZLH--gPQDM7-1" value="Current state" style="text;html=1;align=center;verticalAlign=middle;whiteSpace=wrap;rounded=0;fontSize=36;" parent="1" vertex="1">
          <mxGeometry x="290" y="330" width="245" height="30" as="geometry" />
        </mxCell>
        <mxCell id="ja13YHAvxZLH--gPQDM7-3" value="" style="rounded=0;whiteSpace=wrap;html=1;fillColor=#f5f5f5;strokeColor=#666666;fontColor=#333333;" parent="1" vertex="1">
          <mxGeometry x="80" y="1130" width="660" height="450" as="geometry" />
        </mxCell>
        <mxCell id="ja13YHAvxZLH--gPQDM7-4" value="OrderService" style="rounded=0;whiteSpace=wrap;html=1;fillColor=#d5e8d4;strokeColor=#82b366;" parent="1" vertex="1">
          <mxGeometry x="411" y="1180" width="160" height="50" as="geometry" />
        </mxCell>
        <mxCell id="ja13YHAvxZLH--gPQDM7-5" value="" style="shape=actor;whiteSpace=wrap;html=1;" parent="1" vertex="1">
          <mxGeometry x="371" y="1020" width="40" height="60" as="geometry" />
        </mxCell>
        <mxCell id="ja13YHAvxZLH--gPQDM7-6" value="ClientService" style="rounded=0;whiteSpace=wrap;html=1;fillColor=#d5e8d4;strokeColor=#82b366;" parent="1" vertex="1">
          <mxGeometry x="100" y="1180" width="160" height="50" as="geometry" />
        </mxCell>
        <mxCell id="ja13YHAvxZLH--gPQDM7-7" value="StoreService" style="rounded=0;whiteSpace=wrap;html=1;fillColor=#d5e8d4;strokeColor=#82b366;" parent="1" vertex="1">
          <mxGeometry x="571" y="1290" width="160" height="70" as="geometry" />
        </mxCell>
        <mxCell id="ja13YHAvxZLH--gPQDM7-8" value="Delivery&lt;span style=&quot;background-color: initial;&quot;&gt;Service&lt;/span&gt;" style="rounded=0;whiteSpace=wrap;html=1;fillColor=#d5e8d4;strokeColor=#82b366;" parent="1" vertex="1">
          <mxGeometry x="100" y="1410" width="200" height="50" as="geometry" />
        </mxCell>
        <mxCell id="ja13YHAvxZLH--gPQDM7-9" value="&lt;span style=&quot;background-color: initial;&quot;&gt;Strangler Facade&lt;/span&gt;" style="rounded=0;whiteSpace=wrap;html=1;fillColor=#ffe6cc;strokeColor=#d79b00;" parent="1" vertex="1">
          <mxGeometry x="411" y="1411" width="160" height="50" as="geometry" />
        </mxCell>
        <mxCell id="ja13YHAvxZLH--gPQDM7-10" value="RabbitMQ" style="rounded=0;whiteSpace=wrap;html=1;fillColor=#f8cecc;strokeColor=#b85450;" parent="1" vertex="1">
          <mxGeometry x="100" y="1290" width="400" height="70" as="geometry" />
        </mxCell>
        <mxCell id="ja13YHAvxZLH--gPQDM7-54" value="Transition state" style="text;html=1;align=center;verticalAlign=middle;whiteSpace=wrap;rounded=0;fontSize=36;" parent="1" vertex="1">
          <mxGeometry x="228" y="980" width="314" height="30" as="geometry" />
        </mxCell>
        <mxCell id="ja13YHAvxZLH--gPQDM7-55" value="&lt;span style=&quot;background-color: initial;&quot;&gt;NotifyService&lt;/span&gt;" style="rounded=0;whiteSpace=wrap;html=1;fillColor=#d5e8d4;strokeColor=#82b366;" parent="1" vertex="1">
          <mxGeometry x="414" y="1510" width="160" height="50" as="geometry" />
        </mxCell>
        <mxCell id="ja13YHAvxZLH--gPQDM7-56" value="&lt;span style=&quot;background-color: initial;&quot;&gt;NotifyMicros&lt;/span&gt;&lt;span style=&quot;background-color: initial;&quot;&gt;ervice&lt;/span&gt;" style="rounded=0;whiteSpace=wrap;html=1;fillColor=#dae8fc;strokeColor=#6c8ebf;" parent="1" vertex="1">
          <mxGeometry x="760" y="1410" width="160" height="50" as="geometry" />
        </mxCell>
        <mxCell id="ja13YHAvxZLH--gPQDM7-57" value="" style="endArrow=classic;html=1;rounded=0;exitX=1;exitY=0.5;exitDx=0;exitDy=0;entryX=0;entryY=0.5;entryDx=0;entryDy=0;startArrow=classic;startFill=1;endFill=1;" parent="1" source="ja13YHAvxZLH--gPQDM7-9" target="ja13YHAvxZLH--gPQDM7-56" edge="1">
          <mxGeometry width="50" height="50" relative="1" as="geometry">
            <mxPoint x="390" y="1130" as="sourcePoint" />
            <mxPoint x="440" y="1080" as="targetPoint" />
          </mxGeometry>
        </mxCell>
        <mxCell id="ja13YHAvxZLH--gPQDM7-58" value="" style="endArrow=classic;html=1;rounded=0;exitX=0.5;exitY=1;exitDx=0;exitDy=0;entryX=0.48;entryY=0.023;entryDx=0;entryDy=0;entryPerimeter=0;startArrow=classic;startFill=1;endFill=1;" parent="1" source="ja13YHAvxZLH--gPQDM7-9" target="ja13YHAvxZLH--gPQDM7-55" edge="1">
          <mxGeometry width="50" height="50" relative="1" as="geometry">
            <mxPoint x="581" y="1446" as="sourcePoint" />
            <mxPoint x="880" y="1520" as="targetPoint" />
          </mxGeometry>
        </mxCell>
        <mxCell id="ja13YHAvxZLH--gPQDM7-59" value="" style="rounded=0;whiteSpace=wrap;html=1;fillColor=#f5f5f5;strokeColor=#666666;fontColor=#333333;" parent="1" vertex="1">
          <mxGeometry x="74" y="1830" width="656" height="450" as="geometry" />
        </mxCell>
        <mxCell id="ja13YHAvxZLH--gPQDM7-60" value="OrderService" style="rounded=0;whiteSpace=wrap;html=1;fillColor=#d5e8d4;strokeColor=#82b366;" parent="1" vertex="1">
          <mxGeometry x="405" y="1880" width="160" height="50" as="geometry" />
        </mxCell>
        <mxCell id="ja13YHAvxZLH--gPQDM7-61" value="" style="shape=actor;whiteSpace=wrap;html=1;" parent="1" vertex="1">
          <mxGeometry x="365" y="1720" width="40" height="60" as="geometry" />
        </mxCell>
        <mxCell id="ja13YHAvxZLH--gPQDM7-62" value="ClientService" style="rounded=0;whiteSpace=wrap;html=1;fillColor=#d5e8d4;strokeColor=#82b366;" parent="1" vertex="1">
          <mxGeometry x="94" y="1880" width="160" height="50" as="geometry" />
        </mxCell>
        <mxCell id="ja13YHAvxZLH--gPQDM7-63" value="StoreService" style="rounded=0;whiteSpace=wrap;html=1;fillColor=#d5e8d4;strokeColor=#82b366;" parent="1" vertex="1">
          <mxGeometry x="565" y="1990" width="160" height="70" as="geometry" />
        </mxCell>
        <mxCell id="ja13YHAvxZLH--gPQDM7-64" value="Delivery&lt;span style=&quot;background-color: initial;&quot;&gt;Service&lt;/span&gt;" style="rounded=0;whiteSpace=wrap;html=1;fillColor=#d5e8d4;strokeColor=#82b366;" parent="1" vertex="1">
          <mxGeometry x="94" y="2110" width="200" height="50" as="geometry" />
        </mxCell>
        <mxCell id="ja13YHAvxZLH--gPQDM7-65" value="&lt;span style=&quot;background-color: initial;&quot;&gt;Strangler Facade&lt;/span&gt;" style="rounded=0;whiteSpace=wrap;html=1;fillColor=#ffe6cc;strokeColor=#d79b00;" parent="1" vertex="1">
          <mxGeometry x="405" y="2111" width="160" height="50" as="geometry" />
        </mxCell>
        <mxCell id="ja13YHAvxZLH--gPQDM7-66" value="RabbitMQ" style="rounded=0;whiteSpace=wrap;html=1;fillColor=#f8cecc;strokeColor=#b85450;" parent="1" vertex="1">
          <mxGeometry x="94" y="1990" width="400" height="70" as="geometry" />
        </mxCell>
        <mxCell id="ja13YHAvxZLH--gPQDM7-110" value="Final state" style="text;html=1;align=center;verticalAlign=middle;whiteSpace=wrap;rounded=0;fontSize=36;" parent="1" vertex="1">
          <mxGeometry x="222" y="1680" width="314" height="30" as="geometry" />
        </mxCell>
        <mxCell id="ja13YHAvxZLH--gPQDM7-112" value="&lt;span style=&quot;background-color: initial;&quot;&gt;NotifyMicros&lt;/span&gt;&lt;span style=&quot;background-color: initial;&quot;&gt;ervice&lt;/span&gt;" style="rounded=0;whiteSpace=wrap;html=1;fillColor=#dae8fc;strokeColor=#6c8ebf;" parent="1" vertex="1">
          <mxGeometry x="754" y="2110" width="160" height="50" as="geometry" />
        </mxCell>
        <mxCell id="etDdyIfEeYcQI7L9wXlq-1" value="" style="endArrow=classic;html=1;rounded=0;exitX=-0.043;exitY=0.861;exitDx=0;exitDy=0;exitPerimeter=0;startArrow=classic;startFill=1;endFill=1;" edge="1" parent="1">
          <mxGeometry width="50" height="50" relative="1" as="geometry">
            <mxPoint x="369" y="1068.73" as="sourcePoint" />
            <mxPoint x="215" y="1176.73" as="targetPoint" />
          </mxGeometry>
        </mxCell>
        <mxCell id="etDdyIfEeYcQI7L9wXlq-2" value="" style="endArrow=classic;html=1;rounded=0;exitX=0.25;exitY=1;exitDx=0;exitDy=0;entryX=0.1;entryY=0.024;entryDx=0;entryDy=0;entryPerimeter=0;startArrow=classic;startFill=1;endFill=1;" edge="1" parent="1">
          <mxGeometry width="50" height="50" relative="1" as="geometry">
            <mxPoint x="199.71" y="1230.0000000000002" as="sourcePoint" />
            <mxPoint x="199.71" y="1291.68" as="targetPoint" />
          </mxGeometry>
        </mxCell>
        <mxCell id="etDdyIfEeYcQI7L9wXlq-3" value="" style="endArrow=classic;html=1;rounded=0;entryX=0.074;entryY=0.037;entryDx=0;entryDy=0;entryPerimeter=0;exitX=0.807;exitY=0.994;exitDx=0;exitDy=0;exitPerimeter=0;startArrow=classic;startFill=1;endFill=1;" edge="1" parent="1">
          <mxGeometry width="50" height="50" relative="1" as="geometry">
            <mxPoint x="465.99999999999994" y="1361.68" as="sourcePoint" />
            <mxPoint x="466.0399999999999" y="1414.95" as="targetPoint" />
          </mxGeometry>
        </mxCell>
        <mxCell id="etDdyIfEeYcQI7L9wXlq-4" value="" style="endArrow=classic;html=1;rounded=0;exitX=0.75;exitY=1;exitDx=0;exitDy=0;startArrow=classic;startFill=1;endFill=1;" edge="1" parent="1">
          <mxGeometry width="50" height="50" relative="1" as="geometry">
            <mxPoint x="401" y="1076.73" as="sourcePoint" />
            <mxPoint x="473" y="1176.73" as="targetPoint" />
          </mxGeometry>
        </mxCell>
        <mxCell id="etDdyIfEeYcQI7L9wXlq-5" value="" style="endArrow=classic;html=1;rounded=0;exitX=0;exitY=0.75;exitDx=0;exitDy=0;entryX=1;entryY=0.75;entryDx=0;entryDy=0;startArrow=classic;startFill=1;endFill=1;" edge="1" parent="1">
          <mxGeometry width="50" height="50" relative="1" as="geometry">
            <mxPoint x="571" y="1321.44" as="sourcePoint" />
            <mxPoint x="500" y="1321.44" as="targetPoint" />
          </mxGeometry>
        </mxCell>
        <mxCell id="etDdyIfEeYcQI7L9wXlq-6" value="" style="endArrow=classic;html=1;rounded=0;exitX=0.901;exitY=0.01;exitDx=0;exitDy=0;exitPerimeter=0;entryX=0.25;entryY=1.029;entryDx=0;entryDy=0;entryPerimeter=0;startArrow=classic;startFill=1;endFill=1;" edge="1" parent="1" target="ja13YHAvxZLH--gPQDM7-10">
          <mxGeometry width="50" height="50" relative="1" as="geometry">
            <mxPoint x="199.82000000000005" y="1411.68" as="sourcePoint" />
            <mxPoint x="199.62" y="1362.0900000000001" as="targetPoint" />
          </mxGeometry>
        </mxCell>
        <mxCell id="etDdyIfEeYcQI7L9wXlq-7" value="" style="endArrow=classic;html=1;rounded=0;exitX=0.826;exitY=0.009;exitDx=0;exitDy=0;exitPerimeter=0;entryX=0.218;entryY=0.985;entryDx=0;entryDy=0;entryPerimeter=0;startArrow=classic;startFill=1;endFill=1;" edge="1" parent="1">
          <mxGeometry width="50" height="50" relative="1" as="geometry">
            <mxPoint x="466.12" y="1292.43" as="sourcePoint" />
            <mxPoint x="465.9999999999999" y="1231.68" as="targetPoint" />
          </mxGeometry>
        </mxCell>
        <mxCell id="etDdyIfEeYcQI7L9wXlq-15" value="" style="endArrow=classic;html=1;rounded=0;exitX=1;exitY=0.5;exitDx=0;exitDy=0;entryX=0;entryY=0.5;entryDx=0;entryDy=0;startArrow=classic;startFill=1;endFill=1;" edge="1" parent="1">
          <mxGeometry width="50" height="50" relative="1" as="geometry">
            <mxPoint x="565" y="2137.27" as="sourcePoint" />
            <mxPoint x="754" y="2136.27" as="targetPoint" />
          </mxGeometry>
        </mxCell>
        <mxCell id="etDdyIfEeYcQI7L9wXlq-17" value="" style="endArrow=classic;html=1;rounded=0;exitX=-0.043;exitY=0.861;exitDx=0;exitDy=0;exitPerimeter=0;startArrow=classic;startFill=1;endFill=1;" edge="1" parent="1">
          <mxGeometry width="50" height="50" relative="1" as="geometry">
            <mxPoint x="363" y="1770" as="sourcePoint" />
            <mxPoint x="209" y="1878" as="targetPoint" />
          </mxGeometry>
        </mxCell>
        <mxCell id="etDdyIfEeYcQI7L9wXlq-18" value="" style="endArrow=classic;html=1;rounded=0;exitX=0.25;exitY=1;exitDx=0;exitDy=0;entryX=0.1;entryY=0.024;entryDx=0;entryDy=0;entryPerimeter=0;startArrow=classic;startFill=1;endFill=1;" edge="1" parent="1">
          <mxGeometry width="50" height="50" relative="1" as="geometry">
            <mxPoint x="193.71" y="1931.2700000000002" as="sourcePoint" />
            <mxPoint x="193.71" y="1992.95" as="targetPoint" />
          </mxGeometry>
        </mxCell>
        <mxCell id="etDdyIfEeYcQI7L9wXlq-19" value="" style="endArrow=classic;html=1;rounded=0;entryX=0.074;entryY=0.037;entryDx=0;entryDy=0;entryPerimeter=0;exitX=0.807;exitY=0.994;exitDx=0;exitDy=0;exitPerimeter=0;startArrow=classic;startFill=1;endFill=1;" edge="1" parent="1">
          <mxGeometry width="50" height="50" relative="1" as="geometry">
            <mxPoint x="459.99999999999994" y="2062.95" as="sourcePoint" />
            <mxPoint x="460.0399999999999" y="2116.2200000000003" as="targetPoint" />
          </mxGeometry>
        </mxCell>
        <mxCell id="etDdyIfEeYcQI7L9wXlq-20" value="" style="endArrow=classic;html=1;rounded=0;exitX=0.75;exitY=1;exitDx=0;exitDy=0;startArrow=classic;startFill=1;endFill=1;" edge="1" parent="1">
          <mxGeometry width="50" height="50" relative="1" as="geometry">
            <mxPoint x="395" y="1778" as="sourcePoint" />
            <mxPoint x="467" y="1878" as="targetPoint" />
          </mxGeometry>
        </mxCell>
        <mxCell id="etDdyIfEeYcQI7L9wXlq-21" value="" style="endArrow=classic;html=1;rounded=0;exitX=0;exitY=0.75;exitDx=0;exitDy=0;entryX=1;entryY=0.75;entryDx=0;entryDy=0;startArrow=classic;startFill=1;endFill=1;" edge="1" parent="1">
          <mxGeometry width="50" height="50" relative="1" as="geometry">
            <mxPoint x="565" y="2022.71" as="sourcePoint" />
            <mxPoint x="494" y="2022.71" as="targetPoint" />
          </mxGeometry>
        </mxCell>
        <mxCell id="etDdyIfEeYcQI7L9wXlq-22" value="" style="endArrow=classic;html=1;rounded=0;exitX=0.901;exitY=0.01;exitDx=0;exitDy=0;exitPerimeter=0;entryX=0.25;entryY=1.029;entryDx=0;entryDy=0;entryPerimeter=0;startArrow=classic;startFill=1;endFill=1;" edge="1" parent="1">
          <mxGeometry width="50" height="50" relative="1" as="geometry">
            <mxPoint x="193.82000000000005" y="2112.95" as="sourcePoint" />
            <mxPoint x="194" y="2063.27" as="targetPoint" />
          </mxGeometry>
        </mxCell>
        <mxCell id="etDdyIfEeYcQI7L9wXlq-23" value="" style="endArrow=classic;html=1;rounded=0;exitX=0.826;exitY=0.009;exitDx=0;exitDy=0;exitPerimeter=0;entryX=0.218;entryY=0.985;entryDx=0;entryDy=0;entryPerimeter=0;startArrow=classic;startFill=1;endFill=1;" edge="1" parent="1">
          <mxGeometry width="50" height="50" relative="1" as="geometry">
            <mxPoint x="460.12" y="1993.7" as="sourcePoint" />
            <mxPoint x="459.9999999999999" y="1932.95" as="targetPoint" />
          </mxGeometry>
        </mxCell>
      </root>
    </mxGraphModel>
  </diagram>
</mxfile>
